<?xml version="1.0" encoding="utf-8"?>

<!DOCTYPE svg PUBLIC "-//W3C//DTD SVG 1.1//EN" "http://www.w3.org/Graphics/SVG/1.1/DTD/svg11.dtd">
<svg version="1.1" id="Layer_1" xmlns="http://www.w3.org/2000/svg" xmlns:xlink="http://www.w3.org/1999/xlink" x="0px" y="0px"
	 viewBox="0 0 847 1684" enable-background="new 0 0 847 1684" xml:space="preserve">
<g>
	<path d="M779.803,905.6337c-4.906,17.6151-17.4805,29.8795-36.8879,35.3109c-31.3215,8.7738-54.4355-4.9732-66.7133-33.6936
		l-103.938-356.2625c-0.7545-2.6145-4.5417-2.3718-4.9596,0.3236l-20.863,134.2757c-3.3019,21.2539-1.6712,42.9794,4.7711,63.5056
		l142.3214,453.8254c7.7766,24.7986-10.7549,50.0282-36.7529,50.0282h-98.9512c-5.9164,0-10.9435,4.3802-11.7523,10.2428
		l-46.4027,336.2485c-3.3559,24.394-24.2054,42.5616-48.8287,42.5616h-54.6915c-24.6233,0-45.4728-18.1676-48.8287-42.5616
		l-46.4027-336.2485c-0.8088-5.8625-5.8224-10.2428-11.7523-10.2428h-98.9515c-25.9977,0-44.5292-25.2296-36.753-50.0282
		l142.3218-453.8254c6.4422-20.5262,8.073-42.2517,4.7711-63.5056l-20.8495-134.2757c-0.4179-2.6954-4.2051-2.9381-4.9731-0.3236
		L170.7982,907.251c-12.2781,28.7204-35.3917,42.4674-66.7133,33.6936c-19.4074-5.4315-31.9819-17.6959-36.8879-35.3109
		c-2.9515-10.6202-2.4392-21.9008,0.9167-32.3862L225.4223,380.553c10.8089-33.8821,42.292-56.8747,77.8591-56.8747h240.4507
		c35.5533,0,67.0367,22.9926,77.8456,56.8747l157.3085,492.6945C782.2421,883.7328,782.7545,895.0135,779.803,905.6337z"/>
	<circle cx="423.5" cy="172.9557" r="130.9557"/>
</g>
</svg>
